<svg xmlns="http://www.w3.org/2000/svg" xmlns:xlink="http://www.w3.org/1999/xlink" viewBox="0,0,256,256" width="128px" height="128px" fill-rule="nonzero"><g fill="#ffffff" fill-rule="nonzero" stroke="none" stroke-width="1" stroke-linecap="butt" stroke-linejoin="miter" stroke-miterlimit="10" stroke-dasharray="" stroke-dashoffset="0" font-family="none" font-weight="none" font-size="none" text-anchor="none" style="mix-blend-mode: normal"><g transform="scale(2,2)"><path d="M36.80078,30.80078c-1.7,0 -3,1.3 -3,3v34.29883c-4.3,1.3 -7.5,5.29961 -7.5,10.09961c0,4.8 3.2,8.80156 7.5,10.10156v4.29883c0,1.6 1.4,2.90039 3,2.90039c1.7,0 3,-1.3 3,-3v-4.30078c4.3,-1.3 7.5,-5.29961 7.5,-10.09961c0,-4.8 -3.2,-8.79961 -7.5,-10.09961v-34.19922c0,-1.7 -1.3,-3 -3,-3zM64,30.80078c-1.7,0 -3,1.3 -3,3v5.89844c-4.3,1.3 -7.5,5.30156 -7.5,10.10156c0,4.8 3.2,8.79961 7.5,10.09961v32.59961c0,1.7 1.3,3 3,3c1.7,0 3,-1.3 3,-3v-32.59961c4.3,-1.3 7.5,-5.29961 7.5,-10.09961c0,-4.8 -3.2,-8.80156 -7.5,-10.10156v-5.89844c0,-1.7 -1.3,-3 -3,-3zM91.19922,30.80078c-1.7,0 -3,1.3 -3,3v28.59961c-4.3,1.3 -7.5,5.29961 -7.5,10.09961c0,4.8 3.2,8.79961 7.5,10.09961v9.90039c0,1.7 1.3,3 3,3c1.7,0 3,-1.3 3,-3v-9.90039c4.3,-1.3 7.5,-5.29961 7.5,-10.09961c0,-4.8 -3.2,-8.79961 -7.5,-10.09961v-28.59961c0,-1.7 -1.3,-3 -3,-3zM64,45.30078c2.5,0 4.5,2 4.5,4.5c0,2.5 -2,4.5 -4.5,4.5c-2.5,0 -4.5,-2 -4.5,-4.5c0,-2.5 2,-4.5 4.5,-4.5zM91.19922,68c2.5,0 4.5,2 4.5,4.5c0,2.5 -2,4.5 -4.5,4.5c-2.5,0 -4.5,-2 -4.5,-4.5c0,-2.5 2,-4.5 4.5,-4.5zM36.80078,73.69922c2.5,0 4.5,2 4.5,4.5c0,2.5 -2,4.5 -4.5,4.5c-2.5,0 -4.5,-2 -4.5,-4.5c0,-2.5 2,-4.5 4.5,-4.5z"></path></g></g></svg>